<svg width="30" height="30" viewBox="0 0 24 24" fill="none" xmlns="http://www.w3.org/2000/svg">
<path fill-rule="evenodd" clip-rule="evenodd" d="M21 5H7C6.44772 5 6 5.44772 6 6C6 6.55228 6.44772 7 7 7H21C21.5523 7 22 6.55228 22 6C22 5.44772 21.5523 5 21 5ZM7 11H21C21.5523 11 22 11.4477 22 12C22 12.5523 21.5523 13 21 13H7C6.44772 13 6 12.5523 6 12C6 11.4477 6.44772 11 7 11ZM7 17H21C21.5523 17 22 17.4477 22 18C22 18.5523 21.5523 19 21 19H7C6.44772 19 6 18.5523 6 18C6 17.4477 6.44772 17 7 17ZM3 19C2.44772 19 2 18.5523 2 18C2 17.4477 2.44772 17 3 17C3.55228 17 4 17.4477 4 18C4 18.5523 3.55228 19 3 19ZM2 12C2 12.5523 2.44772 13 3 13C3.55228 13 4 12.5523 4 12C4 11.4477 3.55228 11 3 11C2.44772 11 2 11.4477 2 12ZM3 7C2.44772 7 2 6.55228 2 6C2 5.44772 2.44772 5 3 5C3.55228 5 4 5.44772 4 6C4 6.55228 3.55228 7 3 7Z" fill="#fff"/>
</svg>
