<svg xmlns="http://www.w3.org/2000/svg" width="134.354" height="28" viewBox="0 0 3486 727" shape-rendering="geometricPrecision" text-rendering="geometricPrecision" image-rendering="optimizeQuality" fill-rule="evenodd" clip-rule="evenodd"><g fill-rule="nonzero"><path d="M1295 80c60 0 108 12 142 36 34 23 51 59 51 106 0 24-6 45-19 64s-31 33-55 42c31 7 54 21 69 43 16 22 24 47 24 75 0 50-17 87-49 113-33 25-79 38-139 38h-254v-62l55-11V153l-55-10V80h230zm-71 288v149h95c27 0 48-6 63-18 14-12 21-29 21-53 0-25-6-44-18-58-12-13-32-20-58-20h-103zm0-71h74c28 0 49-6 64-17 15-12 22-28 22-50 0-24-7-42-22-53s-38-17-67-17h-71v137zm529-217v63l-55 10v270c0 34 9 59 27 76 19 17 44 26 76 26s58-9 76-25c19-17 28-43 28-77V153l-55-10V80h214v63l-56 10v270c0 58-19 103-57 134-38 32-88 47-150 47s-112-15-150-47c-38-31-57-76-57-134V153l-55-10V80h214zm341 455l55-11V153l-55-10V80h211v63l-52 10v138h45l99-144-30-4V80h204v63l-56 9-127 170 143 204 52 9v62h-205v-62l32-5-100-149h-57v143l52 11v62h-211v-62z" fill="#fefefe"/><path d="M2947 370h-175v147h167l4-61h79v141h-409v-62l55-11V153l-55-10V80h408v142h-79l-5-62h-165v130h175v80zm464 0h-175v147h167l4-61h79v141h-409v-62l55-11V153l-55-10V80h408v142h-79l-5-62h-165v130h175v80z" fill="#65e496"/></g><g data-name="logo icon"><path data-name="Rectangle 10 copy 3" fill="#65e496" d="M727 727L0 0h727z"/><path fill="#44444f" d="M727 0L0 727V0z"/></g></svg>