<?xml version="1.0" encoding="UTF-8"?><!DOCTYPE svg PUBLIC "-//W3C//DTD SVG 1.1//EN" "http://www.w3.org/Graphics/SVG/1.1/DTD/svg11.dtd"><svg xmlns="http://www.w3.org/2000/svg" width="444.968" height="639.001" viewBox="0 0 8820 12666" shape-rendering="geometricPrecision" text-rendering="geometricPrecision" image-rendering="optimizeQuality" fill-rule="evenodd" clip-rule="evenodd"><defs><style>.bfil2{fill:#3d3d47}.bfil0{fill:#44444f}.bfil1{fill:#65e496}</style></defs><g id="bСлой_x0020_1"><g id="b_2376270509280"><path class="bfil0" d="M99 0h8622c54 0 99 44 99 99v12468c0 54-45 99-99 99H99c-55 0-99-45-99-99V99C0 44 44 0 99 0z" data-name="book"/><path id="bRectangle_10_copy" class="bfil1" d="M7454 10625l1366-1366v1724l-504 504c-115 114-270 178-431 178-337 0-610-273-610-609 0-162 65-317 179-431z" data-name="Rectangle 10 copy"/><path id="bRectangle_10_copy_2" class="bfil1" d="M5852 9717l2968-2967v1724l-2106 2105c-114 114-269 178-431 178-336 0-609-273-609-609 0-162 64-317 178-431z" data-name="Rectangle 10 copy 2"/><path class="bfil2" d="M0 12666h1243V0H0z"/></g></g></svg>