<?xml version="1.0" encoding="UTF-8"?><!DOCTYPE svg PUBLIC "-//W3C//DTD SVG 1.1//EN" "http://www.w3.org/Graphics/SVG/1.1/DTD/svg11.dtd"><svg xmlns="http://www.w3.org/2000/svg" width="268.362" height="409.002" viewBox="0 0 5252 8004" shape-rendering="geometricPrecision" text-rendering="geometricPrecision" image-rendering="optimizeQuality" fill-rule="evenodd" clip-rule="evenodd"><defs><style>.dfil2{fill:#3d3d47}.dfil0{fill:#44444f}.dfil1{fill:#65e496}</style></defs><g id="dСлой_x0020_1"><g id="d_2376227266112"><path class="dfil0" d="M98 0h5067c38 0 70 21 87 52v7899c-17 32-49 53-87 53H98c-54 0-98-44-98-98V98C0 44 44 0 98 0z"/><path id="dRectangle_11_copy_3" class="dfil1" d="M4886 5757l366-212v226l-268 155c-15 8-32 13-49 13-54 0-98-44-98-98 0-35 19-67 49-84z" data-name="Rectangle 11 copy 3"/><path id="dRectangle_11_copy_2" class="dfil1" d="M4886 5228l366-211v226l-268 155c-15 8-32 12-49 12-54 0-98-43-98-97 0-35 19-67 49-85z" data-name="Rectangle 11 copy 2"/><path class="dfil2" d="M0 8004h742V0H0z"/></g></g></svg>